<svg width="100" height="100" viewBox="0 0 100 100" fill="none" xmlns="http://www.w3.org/2000/svg">
<path d="M37.7324 54.6511C38.0878 48.3132 41.1863 42.7131 45.881 38.7561C50.4751 34.8662 56.6454 32.4854 63.4192 32.4854C70.1595 32.4854 76.3297 34.8629 80.9238 38.7561C85.6185 42.7131 88.7036 48.3132 89.0725 54.6511C89.4279 61.1566 86.8089 67.2262 82.2315 71.7197C77.5368 76.2803 70.8972 79.1642 63.4192 79.1642C55.9412 79.1642 49.268 76.3004 44.6068 71.7197C40.0127 67.2262 37.397 61.1902 37.7659 54.6846L37.7324 54.6511Z" fill="white"/>
<path d="M51.7827 53.8749C51.9654 50.6179 53.5576 47.7401 55.9702 45.7066C58.3311 43.7076 61.5019 42.4841 64.9829 42.4841C68.4466 42.4841 71.6174 43.7059 73.9783 45.7066C76.3909 47.7401 77.9762 50.6179 78.1658 53.8749C78.3485 57.218 77.0026 60.3371 74.6503 62.6462C72.2378 64.9899 68.8257 66.4719 64.9829 66.4719C61.14 66.4719 57.7107 65.0002 55.3154 62.6462C52.9545 60.3371 51.6104 57.2352 51.7999 53.8921L51.7827 53.8749Z" fill="#265787"/>
<path d="M31.1037 60.7679C31.1261 62.0431 31.5327 64.5246 32.1428 66.4547C33.4249 70.556 35.6065 74.3472 38.6223 77.6731C41.7241 81.1024 45.5497 83.8596 49.9613 85.8241C54.5968 87.8748 59.6288 88.926 64.8502 88.926C70.0717 88.9191 75.1036 87.8507 79.7392 85.7724C84.1508 83.7907 87.9764 81.0335 91.0783 77.587C94.1112 74.2266 96.2825 70.4354 97.5577 66.3341C98.2039 64.2662 98.6123 62.1638 98.7761 60.0614C98.9363 57.9935 98.8692 55.9083 98.5745 53.8232C97.9989 49.7735 96.5927 45.9651 94.4386 42.5186C92.4741 39.3306 89.9237 36.5561 86.8907 34.2125L86.8977 34.2073L56.3959 10.771C56.3684 10.7503 56.346 10.7279 56.3167 10.7089C54.3177 9.17178 50.9401 9.17696 48.7516 10.7176C46.5286 12.2754 46.2701 14.8534 48.2518 16.4732L48.2432 16.4819L60.9781 26.8387L22.2047 26.88H22.153C18.9478 26.8834 15.8631 28.9824 15.26 31.6535C14.6327 34.359 16.8109 36.6164 20.1541 36.6164L20.1489 36.6285L39.7941 36.5906L4.63957 63.4735C4.59476 63.5062 4.5465 63.5406 4.50515 63.5734C1.19649 66.1066 0.128064 70.3286 2.21321 72.9824C4.33282 75.6879 8.83052 75.7051 12.1736 72.9979L31.3018 57.3162C31.3018 57.3162 31.0227 59.4358 31.0451 60.6938L31.1037 60.7679ZM80.3889 67.8505C76.4426 71.8657 70.911 74.1576 64.9485 74.1576C58.9688 74.168 53.4371 71.9174 49.4908 67.9022C47.5608 65.9377 46.1477 63.6975 45.2689 61.3021C44.4124 58.9413 44.0798 56.4425 44.3004 53.9266C44.5089 51.4623 45.243 49.1015 46.42 46.9818C47.5711 44.8967 49.16 43.0011 51.1073 41.3985C54.9501 38.2794 59.827 36.5733 64.9278 36.5733C70.0459 36.5664 74.9227 38.2432 78.7656 41.364C80.7128 42.9563 82.2982 44.845 83.4528 46.9301C84.6298 49.0498 85.3657 51.3934 85.5725 53.8749C85.7896 56.3908 85.457 58.8896 84.6005 61.2504C83.7251 63.663 82.3086 65.9032 80.3785 67.8677L80.3889 67.8505Z" fill="#EA7600"/>
</svg>
